<svg xmlns="http://www.w3.org/2000/svg" xmlns:xlink="http://www.w3.org/1999/xlink" version="1.1" class="marks" width="548" height="352" viewBox="0 0 548 352"><rect width="548" height="352" fill="white"/><g fill="none" stroke-miterlimit="10" transform="translate(5,5)"><g class="mark-group role-frame root" role="graphics-object" aria-roledescription="group mark container"><g transform="translate(0,0)"><path class="background" aria-hidden="true" d="M0,0h500v300h-500Z" stroke="#ddd" stroke-width="0"/><g><g class="mark-group role-axis" aria-hidden="true"><g transform="translate(0.5,300.5)"><path class="background" aria-hidden="true" d="M0,0h0v0h0Z" pointer-events="none"/><g><g class="mark-rule role-axis-grid" pointer-events="none"><line transform="translate(50,-300)" x2="0" y2="300" stroke="#ddd" stroke-opacity="0" stroke-width="1" opacity="1"/><line transform="translate(250,-300)" x2="0" y2="300" stroke="#ddd" stroke-opacity="0" stroke-width="1" opacity="1"/><line transform="translate(450,-300)" x2="0" y2="300" stroke="#ddd" stroke-opacity="0" stroke-width="1" opacity="1"/></g></g><path class="foreground" aria-hidden="true" d="" pointer-events="none" display="none"/></g></g><g class="mark-group role-axis" role="graphics-symbol" aria-roledescription="axis" aria-label="X-axis titled 'a' for a linear scale with values from −0.1 to 0.5"><g transform="translate(0.5,300.5)"><path class="background" aria-hidden="true" d="M0,0h0v0h0Z" pointer-events="none"/><g><g class="mark-rule role-axis-tick" pointer-events="none"><line transform="translate(50,0)" x2="0" y2="5" stroke="#888" stroke-opacity="0" stroke-width="1" opacity="1"/><line transform="translate(250,0)" x2="0" y2="5" stroke="#888" stroke-opacity="0" stroke-width="1" opacity="1"/><line transform="translate(450,0)" x2="0" y2="5" stroke="#888" stroke-opacity="0" stroke-width="1" opacity="1"/></g><g class="mark-text role-axis-label" pointer-events="none"><text text-anchor="middle" transform="translate(50,23)" font-family="sans-serif" font-size="20px" fill="#000" opacity="1">You</text><text text-anchor="middle" transform="translate(250,23)" font-family="sans-serif" font-size="20px" fill="#000" opacity="1">Medical Average</text><text text-anchor="middle" transform="translate(450,23)" font-family="sans-serif" font-size="20px" fill="#000" opacity="1">Population Average</text></g><g class="mark-rule role-axis-domain" pointer-events="none"><line transform="translate(0,0)" x2="500" y2="0" stroke="#888" stroke-opacity="0" stroke-width="1" opacity="1"/></g><g class="mark-text role-axis-title" pointer-events="none"><text text-anchor="middle" transform="translate(250,40)" font-family="sans-serif" font-size="11px" font-weight="bold" fill="#000" fill-opacity="0" opacity="1">a</text></g></g><path class="foreground" aria-hidden="true" d="" pointer-events="none" display="none"/></g></g><g class="mark-group role-scope" role="graphics-object" aria-roledescription="group mark container"><g transform="translate(0,37.5)"><path class="background" aria-hidden="true" d="M20,0L80,0C91.03830048988,0,100,8.96169951012,100,20L100,242.5C100,253.53830048988,91.03830048988,262.5,80,262.5L20,262.5C8.96169951012,262.5,0,253.53830048988,0,242.5L0,20C0,8.96169951012,8.96169951012,0,20,0Z"/><g clip-path="url(#clip4)"><g class="mark-group role-scope" role="graphics-object" aria-roledescription="group mark container"><g transform="translate(0,-37.5)"><path class="background" aria-hidden="true" d="M0,0h100v0h-100Z"/><g><g class="mark-rect role-mark layer_0_marks" role="graphics-object" aria-roledescription="rect mark container"><path aria-label="a: 0; b: 35; color: #27326b" role="graphics-symbol" aria-roledescription="bar" d="M0,37.5h100v262.5h-100Z" fill="#27326b"/></g></g><path class="foreground" aria-hidden="true" d="" display="none"/></g></g></g><path class="foreground" aria-hidden="true" d="" display="none"/></g><g transform="translate(200,45.00000000000001)"><path class="background" aria-hidden="true" d="M20,0L80,0C91.03830048988,0,100,8.96169951012,100,20L100,235C100,246.03830048988,91.03830048988,255,80,255L20,255C8.96169951012,255,0,246.03830048988,0,235L0,20C0,8.96169951012,8.96169951012,0,20,0Z"/><g clip-path="url(#clip5)"><g class="mark-group role-scope" role="graphics-object" aria-roledescription="group mark container"><g transform="translate(0,-45.00000000000001)"><path class="background" aria-hidden="true" d="M0,0h100v0h-100Z"/><g><g class="mark-rect role-mark layer_0_marks" role="graphics-object" aria-roledescription="rect mark container"><path aria-label="a: 0.2; b: 34; color: #ffd7a3" role="graphics-symbol" aria-roledescription="bar" d="M0,45.00000000000001h100v255h-100Z" fill="#ffd7a3"/></g></g><path class="foreground" aria-hidden="true" d="" display="none"/></g></g></g><path class="foreground" aria-hidden="true" d="" display="none"/></g><g transform="translate(400,29.999999999999993)"><path class="background" aria-hidden="true" d="M20,0L80,0C91.03830048988,0,100,8.96169951012,100,20L100,250C100,261.03830048988,91.03830048988,270,80,270L20,270C8.96169951012,270,0,261.03830048988,0,250L0,20C0,8.96169951012,8.96169951012,0,20,0Z"/><g clip-path="url(#clip6)"><g class="mark-group role-scope" role="graphics-object" aria-roledescription="group mark container"><g transform="translate(0,-29.999999999999993)"><path class="background" aria-hidden="true" d="M0,0h100v0h-100Z"/><g><g class="mark-rect role-mark layer_0_marks" role="graphics-object" aria-roledescription="rect mark container"><path aria-label="a: 0.4; b: 36; color: #95965f" role="graphics-symbol" aria-roledescription="bar" d="M0,29.999999999999993h100v270h-100Z" fill="#95965f"/></g></g><path class="foreground" aria-hidden="true" d="" display="none"/></g></g></g><path class="foreground" aria-hidden="true" d="" display="none"/></g></g><g class="mark-text role-mark layer_1_marks" role="graphics-object" aria-roledescription="text mark container"><text aria-label="a: 0; b: 35; color: #27326b" role="graphics-symbol" aria-roledescription="text mark" text-anchor="middle" transform="translate(50,29.5)" font-family="sans-serif" font-size="24px" fill="#27326b">35</text><text aria-label="a: 0.2; b: 34; color: #ffd7a3" role="graphics-symbol" aria-roledescription="text mark" text-anchor="middle" transform="translate(250,37.00000000000001)" font-family="sans-serif" font-size="24px" fill="#ffd7a3">34</text><text aria-label="a: 0.4; b: 36; color: #95965f" role="graphics-symbol" aria-roledescription="text mark" text-anchor="middle" transform="translate(450,21.999999999999993)" font-family="sans-serif" font-size="24px" fill="#95965f">36</text></g></g><path class="foreground" aria-hidden="true" d="" display="none"/></g></g></g><defs><clipPath id="clip4"><path d="M20,0L80,0C91.03830048988,0,100,8.96169951012,100,20L100,242.5C100,253.53830048988,91.03830048988,262.5,80,262.5L20,262.5C8.96169951012,262.5,0,253.53830048988,0,242.5L0,20C0,8.96169951012,8.96169951012,0,20,0Z"/></clipPath><clipPath id="clip5"><path d="M20,0L80,0C91.03830048988,0,100,8.96169951012,100,20L100,235C100,246.03830048988,91.03830048988,255,80,255L20,255C8.96169951012,255,0,246.03830048988,0,235L0,20C0,8.96169951012,8.96169951012,0,20,0Z"/></clipPath><clipPath id="clip6"><path d="M20,0L80,0C91.03830048988,0,100,8.96169951012,100,20L100,250C100,261.03830048988,91.03830048988,270,80,270L20,270C8.96169951012,270,0,261.03830048988,0,250L0,20C0,8.96169951012,8.96169951012,0,20,0Z"/></clipPath></defs></svg>